# xmcd
#
# Track frame offsets:
#	150
#	18172
#	34721
#	53177
#	70644
#	88186
#	106073
#	125134
#	142039
#	158764
#	177776
#	192377
#	209607
#	224929
#	245143
#
# Disc length: 3512 seconds
#
# Revision: 1
# Processed by: cddbd v1.5.1PL2 Copyright (c) Steve Scherf et al.
# Submitted via: audiograbber 1.83.01
#
DISCID=e40db60f
DTITLE=Music Maestro - MM6411
DYEAR=1900
DGENRE=Karaoke
TTITLE0=Keith, Toby - Whiskey Girl
TTITLE1=Wilson, Gretchen - Redneck Woman
TTITLE2=Lonestar - Let's Be Us Again
TTITLE3=Gracin, Josh - I Want To Live
TTITLE4=Proctor, Rachel - Me And Emily
TTITLE5=Griggs, Andy - She Thinks She Needs Me
TTITLE6=Wayne, Jimmy - You Are
TTITLE7=Johnson, Carolyn Dawn - Simple Life
TTITLE8=Shelton, Blake - When Somebody Knows You That Well
TTITLE9=Roberts, Julie - Break Down Here
TTITLE10=Diffie, Joe - Tougher Than Nails
TTITLE11=Wright, Chely - Back Of The Bottom Drawer
TTITLE12=Willmon, Trent - Beer Man
TTITLE13=Paisley, Brad and Alison Krauss - Whiskey Lullaby
TTITLE14=McBride, Martina - How Far
EXTD=
EXTT0=
EXTT1=
EXTT2=
EXTT3=
EXTT4=
EXTT5=
EXTT6=
EXTT7=
EXTT8=
EXTT9=
EXTT10=
EXTT11=
EXTT12=
EXTT13=
EXTT14=
PLAYORDER=
